<svg xmlns="http://www.w3.org/2000/svg" xmlns:xlink="http://www.w3.org/1999/xlink" width="249.104" height="25" viewBox="0 0 249.104 25"><script xmlns=""/><defs><clipPath id="a"><rect width="249.104" height="25" fill="none"/></clipPath></defs><rect width="5.588" height="21.624" transform="translate(0 1.16)" fill="#303030"/><path d="M43.161,24.855,33.053,11.541V24.855H27.811V3.232h4.929L42.879,16.576V3.232H48.09V24.855Z" transform="translate(-17.828 -2.07)" fill="#303030"/><g clip-path="url(#a)"><path d="M112.836,6.359l-3.188,3.777A7.414,7.414,0,0,0,104.2,7.318,6.045,6.045,0,0,0,98.162,13.6,6.088,6.088,0,0,0,104.2,19.98a8.122,8.122,0,0,0,5.449-2.539l3.22,3.405a13.083,13.083,0,0,1-8.947,3.963A11.005,11.005,0,0,1,92.528,13.665c0-6.253,4.984-10.959,11.578-10.959a12.584,12.584,0,0,1,8.73,3.653" transform="translate(-59.777 -1.748)" fill="#303030"/><path d="M248.071,18.8h-4.334v6.1h-5.511V3.232h9.69c5.727,0,9.008,2.724,9.008,7.554,0,3.312-1.393,5.7-3.931,6.965l4.551,7.151h-6.253Zm-.155-4.334c2.384,0,3.776-1.207,3.776-3.5,0-2.26-1.393-3.405-3.776-3.405h-4.179v6.9Z" transform="translate(-153.904 -2.088)" fill="#303030"/><path d="M311.39,18.8h-4.334v6.1h-5.511V3.232h9.689c5.727,0,9.008,2.724,9.008,7.554,0,3.312-1.393,5.7-3.931,6.965l4.551,7.151H314.61Zm-.155-4.334c2.384,0,3.777-1.207,3.777-3.5,0-2.26-1.393-3.405-3.777-3.405h-4.179v6.9Z" transform="translate(-194.81 -2.088)" fill="#303030"/><rect width="5.51" height="21.67" transform="translate(129.148 1.144)" fill="#303030"/><path d="M409.239,13.541v8.452a17.028,17.028,0,0,1-9.008,2.817c-6.594,0-11.578-4.767-11.578-11.083,0-6.284,5.108-11.021,11.949-11.021a13.852,13.852,0,0,1,8.854,3.22l-3.1,3.746a8.894,8.894,0,0,0-5.789-2.353,6.24,6.24,0,0,0-6.284,6.408,6.287,6.287,0,0,0,6.346,6.47,9.211,9.211,0,0,0,3.839-1.052v-5.6Z" transform="translate(-251.084 -1.748)" fill="#303030"/><rect width="5.51" height="21.67" transform="translate(161.993 1.144)" fill="#303030"/><path d="M495.713,3.231c4.86,0,7.956,2.105,7.956,5.417a4.852,4.852,0,0,1-3.715,4.768,5.34,5.34,0,0,1,4.458,5.479c0,3.684-3.22,6.006-8.327,6.006H485.467V3.231ZM490.946,11.9H495.4c1.61,0,2.631-.867,2.631-2.26s-1.021-2.2-2.631-2.2h-4.458Zm0,8.761H495.4c2.043,0,3.312-.9,3.312-2.446,0-1.455-1.269-2.353-3.312-2.353h-4.458Z" transform="translate(-313.63 -2.088)" fill="#303030"/><path d="M562.7,20.288V24.9H548V3.231h5.51V20.288Z" transform="translate(-354.027 -2.088)" fill="#303030"/><path d="M602.483,7.565v4.3h10.34V16.2h-10.34v4.365h11.795V24.9h-17.3V3.232h16.964V7.565Z" transform="translate(-385.667 -2.088)" fill="#303030"/><path d="M669.8,4.946l-2.074,4.3a16.146,16.146,0,0,0-6.934-2.26c-1.424,0-2.383.526-2.383,1.579,0,3.746,11.453,1.61,11.453,9.442,0,4.334-3.839,6.625-8.668,6.625a16.16,16.16,0,0,1-9.906-3.467l2.136-4.241a13.507,13.507,0,0,0,7.832,3.25c1.733,0,2.817-.65,2.817-1.888,0-3.839-11.454-1.548-11.454-9.225,0-3.994,3.436-6.532,8.637-6.532A16.262,16.262,0,0,1,669.8,4.946" transform="translate(-420.753 -1.635)" fill="#303030"/><path d="M169.906,0a12.5,12.5,0,1,0,12.5,12.5A12.5,12.5,0,0,0,169.906,0m0,23.047A10.547,10.547,0,1,1,180.453,12.5a10.547,10.547,0,0,1-10.547,10.547" transform="translate(-101.69 0)" fill="#d45419"/><path d="M189.19,33.034a1.25,1.25,0,1,0,1.25-1.25,1.249,1.249,0,0,0-1.25,1.25" transform="translate(-122.224 -20.534)" fill="#d45419"/><path d="M187.143,30.615l.692,1.04a3.75,3.75,0,1,0-3.916,0l.693-1.04a2.5,2.5,0,1,1,2.531,0" transform="translate(-117.661 -15.97)" fill="#d45419"/><path d="M181.313,17.657a6.24,6.24,0,0,0-3.345,11.514l.693-1.04a5,5,0,1,1,5.3,0l.694,1.04a6.24,6.24,0,0,0-3.345-11.514" transform="translate(-113.097 -11.407)" fill="#d45419"/><path d="M186.1,45.842h4.688l-2.344-3.906Z" transform="translate(-120.227 -27.092)" fill="#d45419"/></g></svg>